<svg width="32" height="32" viewBox="0 0 32 32" fill="none" xmlns="http://www.w3.org/2000/svg">
<path d="M13.3333 17.333C13.9059 18.0985 14.6365 18.7319 15.4754 19.1902C16.3143 19.6486 17.242 19.9211 18.1955 19.9894C19.1491 20.0577 20.1061 19.9201 21.0018 19.586C21.8975 19.2519 22.7108 18.7291 23.3867 18.053L27.3867 14.053C28.6011 12.7956 29.273 11.1116 29.2578 9.36362C29.2426 7.61564 28.5415 5.94356 27.3055 4.7075C26.0694 3.47145 24.3973 2.77032 22.6493 2.75513C20.9014 2.73995 19.2174 3.41191 17.96 4.62629L15.6667 6.90629" stroke="#181818" stroke-width="2" stroke-linecap="round" stroke-linejoin="round"/>
<path d="M18.6667 14.6666C18.0941 13.9011 17.3635 13.2677 16.5246 12.8094C15.6857 12.351 14.758 12.0785 13.8045 12.0102C12.8509 11.9419 11.8939 12.0795 10.9982 12.4136C10.1025 12.7477 9.28918 13.2705 8.61333 13.9466L4.61333 17.9466C3.39895 19.204 2.72698 20.888 2.74217 22.636C2.75736 24.384 3.45849 26.056 4.69454 27.2921C5.9306 28.5282 7.60268 29.2293 9.35066 29.2445C11.0986 29.2597 12.7826 28.5877 14.04 27.3733L16.32 25.0933" stroke="#181818" stroke-width="2" stroke-linecap="round" stroke-linejoin="round"/>
</svg>
