<svg width="741" height="189" viewBox="0 0 741 189" fill="none" xmlns="http://www.w3.org/2000/svg">
<path d="M100.264 5.82151C100.264 0.645477 94.0078 -1.94669 90.3491 1.71331L1.70108 90.3918C-0.567028 92.6607 -0.567026 96.3393 1.70108 98.6082L90.3491 187.287C94.0078 190.947 100.264 188.355 100.264 183.178V158.367C100.264 156.804 99.6345 155.308 98.5181 154.215L41.7939 98.6809C39.4552 96.3913 39.4682 92.622 41.8225 90.3486L98.4894 35.63C99.6233 34.5351 100.264 33.0263 100.264 31.4499V5.82151Z" fill="#B5B5B5"/>
<path fill-rule="evenodd" clip-rule="evenodd" d="M96.5556 127.081C98.8237 129.35 102.501 129.35 104.769 127.081L132.833 99.0071C135.101 96.7382 135.102 93.0596 132.833 90.7907L104.769 62.7168C102.501 60.4479 98.8238 60.4479 96.5556 62.7168L68.4914 90.7907C66.2233 93.0596 66.2233 96.7382 68.4914 99.007L96.5556 127.081ZM96.5554 105.223C98.8236 107.492 102.501 107.492 104.769 105.223L110.929 99.0606C113.197 96.7917 113.197 93.1131 110.929 90.8442L104.769 84.6819C102.501 82.413 98.8236 82.413 96.5554 84.6819L90.3953 90.8442C88.1272 93.1131 88.1272 96.7917 90.3953 99.0606L96.5554 105.223Z" fill="#B5B5B5"/>
<path d="M167.474 97.2805V95.4649C167.474 89.2919 167.777 84.1175 168.382 79.9417C168.987 75.7356 170.03 72.3163 171.512 69.6837C172.995 67.0511 175.006 65.0388 177.547 63.6469C180.118 62.2549 183.34 61.3169 187.212 60.8327C191.084 60.3183 195.742 60.0611 201.187 60.0611H219.473C225.704 60.0611 230.952 60.3637 235.217 60.9689C239.513 61.5438 242.961 62.7088 245.563 64.4639C248.194 66.1887 250.1 68.7456 251.28 72.1347C252.459 75.4935 253.049 79.9568 253.049 85.5246H244.337C244.337 81.1369 243.944 77.7327 243.158 75.312C242.371 72.8609 241.04 71.0907 239.165 70.0014C237.32 68.912 234.794 68.2463 231.587 68.0042C228.381 67.7319 224.343 67.5957 219.473 67.5957H201.187C196.861 67.5957 193.216 67.7319 190.252 68.0042C187.287 68.2463 184.867 68.8364 182.992 69.7744C181.147 70.6822 179.725 72.1347 178.727 74.1318C177.759 76.129 177.093 78.8523 176.73 82.3019C176.367 85.7515 176.186 90.1392 176.186 95.4649V97.2805C176.186 102.425 176.367 106.691 176.73 110.08C177.093 113.469 177.759 116.178 178.727 118.205C179.725 120.232 181.147 121.745 182.992 122.744C184.867 123.743 187.287 124.393 190.252 124.696C193.216 124.998 196.861 125.15 201.187 125.15H219.473C224.343 125.15 228.381 125.044 231.587 124.832C234.794 124.62 237.32 124 239.165 122.971C241.04 121.942 242.371 120.232 243.158 117.842C243.944 115.421 244.337 112.032 244.337 107.675H253.049C253.049 113.242 252.459 117.691 251.28 121.019C250.1 124.348 248.194 126.859 245.563 128.554C242.961 130.218 239.513 131.323 235.217 131.867C230.952 132.412 225.704 132.684 219.473 132.684H201.187C194.381 132.684 188.785 132.215 184.399 131.277C180.012 130.369 176.579 128.675 174.099 126.194C171.649 123.712 169.924 120.142 168.926 115.482C167.958 110.822 167.474 104.755 167.474 97.2805Z" fill="#B5B5B5"/>
<path d="M292.479 132.23C286.641 132.23 281.68 131.928 277.597 131.323C273.513 130.748 270.216 129.552 267.705 127.737C265.194 125.891 263.364 123.137 262.215 119.476C261.065 115.815 260.491 110.928 260.491 104.815C260.491 98.8842 261.065 94.1335 262.215 90.5628C263.364 86.9922 265.194 84.2991 267.705 82.4835C270.216 80.6679 273.513 79.4575 277.597 78.8523C281.68 78.2472 286.641 77.9446 292.479 77.9446C298.348 77.9446 303.308 78.2472 307.362 78.8523C311.445 79.4575 314.743 80.6679 317.253 82.4835C319.764 84.2991 321.594 86.9922 322.744 90.5628C323.893 94.1335 324.468 98.8842 324.468 104.815C324.468 110.928 323.893 115.815 322.744 119.476C321.594 123.137 319.764 125.891 317.253 127.737C314.743 129.552 311.445 130.748 307.362 131.323C303.308 131.928 298.348 132.23 292.479 132.23ZM315.756 104.815C315.756 100.488 315.529 97.0233 315.075 94.4209C314.652 91.8186 313.699 89.8669 312.217 88.5657C310.735 87.2343 308.421 86.3416 305.275 85.8877C302.159 85.4338 297.894 85.2069 292.479 85.2069C287.095 85.2069 282.83 85.4338 279.684 85.8877C276.538 86.3416 274.224 87.2343 272.742 88.5657C271.259 89.8669 270.291 91.8186 269.838 94.4209C269.414 97.0233 269.202 100.488 269.202 104.815C269.202 109.294 269.414 112.879 269.838 115.572C270.291 118.266 271.259 120.293 272.742 121.655C274.224 122.986 276.538 123.879 279.684 124.333C282.83 124.756 287.095 124.968 292.479 124.968C297.894 124.968 302.159 124.756 305.275 124.333C308.421 123.879 310.735 122.986 312.217 121.655C313.699 120.293 314.652 118.266 315.075 115.572C315.529 112.879 315.756 109.294 315.756 104.815Z" fill="#B5B5B5"/>
<path d="M334.813 131.232V78.9431H343.525V85.8877C344.826 84.1327 346.429 82.6651 348.334 81.4849C350.27 80.3048 352.842 79.4273 356.048 78.8523C359.285 78.2472 363.52 77.9446 368.753 77.9446C375.589 77.9446 380.973 78.6103 384.906 79.9417C388.868 81.2731 391.682 83.6485 393.345 87.0678C395.009 90.4872 395.841 95.3287 395.841 101.592V131.232H387.084V101.592C387.084 98.0218 386.781 95.1472 386.176 92.9685C385.571 90.7898 384.528 89.1406 383.045 88.021C381.593 86.9014 379.582 86.1601 377.011 85.7969C374.44 85.4036 371.173 85.2069 367.21 85.2069C361.16 85.2069 356.411 85.7062 352.963 86.7047C349.514 87.7033 347.079 89.2768 345.657 91.4252C344.236 93.5434 343.525 96.3122 343.525 99.7315V131.232H334.813Z" fill="#B5B5B5"/>
<path d="M407.502 131.232V78.9431H416.214V85.8877C417.514 84.1327 419.118 82.6651 421.023 81.4849C422.959 80.3048 425.531 79.4273 428.737 78.8523C431.974 78.2472 436.208 77.9446 441.442 77.9446C448.278 77.9446 453.662 78.6103 457.595 79.9417C461.557 81.2731 464.371 83.6485 466.034 87.0678C467.698 90.4872 468.53 95.3287 468.53 101.592V131.232H459.773V101.592C459.773 98.0218 459.47 95.1472 458.865 92.9685C458.26 90.7898 457.217 89.1406 455.734 88.021C454.282 86.9014 452.271 86.1601 449.7 85.7969C447.128 85.4036 443.862 85.2069 439.899 85.2069C433.849 85.2069 429.1 85.7062 425.652 86.7047C422.203 87.7033 419.768 89.2768 418.346 91.4252C416.925 93.5434 416.214 96.3122 416.214 99.7315V131.232H407.502Z" fill="#B5B5B5"/>
<path d="M539.858 115.709C539.858 119.612 539.268 122.683 538.088 124.923C536.939 127.162 535.169 128.796 532.779 129.825C530.39 130.854 527.334 131.504 523.614 131.777C519.923 132.079 515.522 132.23 510.41 132.23C504.572 132.23 499.611 131.928 495.527 131.323C491.474 130.748 488.192 129.552 485.681 127.737C483.201 125.891 481.386 123.137 480.236 119.476C479.117 115.815 478.557 110.928 478.557 104.815C478.557 98.8842 479.102 94.1335 480.191 90.5628C481.31 86.9922 483.11 84.2991 485.59 82.4835C488.071 80.6679 491.323 79.4575 495.346 78.8523C499.399 78.2472 504.345 77.9446 510.183 77.9446C516.868 77.9446 522.404 78.4136 526.79 79.3516C531.176 80.2897 534.443 82.075 536.591 84.7076C538.769 87.3402 539.858 91.1983 539.858 96.2819V107.493H487.315C487.345 111.366 487.617 114.468 488.131 116.798C488.646 119.128 489.674 120.883 491.217 122.063C492.759 123.243 495.058 124.03 498.114 124.423C501.199 124.787 505.298 124.968 510.41 124.968C515.008 124.968 518.713 124.877 521.527 124.696C524.37 124.514 526.518 124.121 527.97 123.516C529.452 122.88 530.45 121.942 530.964 120.701C531.479 119.461 531.736 117.797 531.736 115.709H539.858ZM510.183 85.2069C505.252 85.2069 501.275 85.3884 498.25 85.7515C495.255 86.1147 492.971 86.8258 491.398 87.8849C489.825 88.9137 488.751 90.4569 488.177 92.5146C487.632 94.5722 487.345 97.2805 487.315 100.639H531.509V96.2819C531.509 94.1032 531.252 92.3028 530.737 90.8806C530.253 89.4281 529.285 88.2934 527.833 87.4763C526.382 86.6291 524.234 86.039 521.39 85.7062C518.577 85.3733 514.841 85.2069 510.183 85.2069Z" fill="#B5B5B5"/>
<path d="M581.692 132.23C575.854 132.23 570.893 131.928 566.81 131.323C562.726 130.748 559.429 129.552 556.918 127.737C554.407 125.891 552.577 123.137 551.428 119.476C550.278 115.815 549.704 110.928 549.704 104.815C549.704 98.8842 550.278 94.1335 551.428 90.5628C552.577 86.9922 554.407 84.2991 556.918 82.4835C559.429 80.6679 562.726 79.4575 566.81 78.8523C570.893 78.2472 575.854 77.9446 581.692 77.9446C588.68 77.9446 594.427 78.3531 598.934 79.1701C603.472 79.9568 606.829 81.5908 609.007 84.0721C611.185 86.5534 612.274 90.3359 612.274 95.4195H603.925C603.925 92.4843 603.32 90.2905 602.111 88.838C600.901 87.3856 598.692 86.4173 595.486 85.9331C592.28 85.449 587.682 85.2069 581.692 85.2069C576.308 85.2069 572.043 85.4338 568.897 85.8877C565.751 86.3416 563.437 87.2343 561.955 88.5657C560.472 89.8669 559.504 91.8186 559.051 94.4209C558.627 97.0233 558.415 100.488 558.415 104.815C558.415 109.294 558.627 112.879 559.051 115.572C559.504 118.266 560.472 120.293 561.955 121.655C563.437 122.986 565.751 123.879 568.897 124.333C572.043 124.756 576.308 124.968 581.692 124.968C586.26 124.968 589.996 124.847 592.9 124.605C595.804 124.333 598.057 123.818 599.66 123.062C601.264 122.275 602.368 121.155 602.973 119.703C603.608 118.22 603.925 116.253 603.925 113.802H612.274C612.274 117.857 611.669 121.11 610.459 123.561C609.249 126.012 607.404 127.858 604.924 129.099C602.443 130.339 599.267 131.171 595.395 131.595C591.554 132.019 586.986 132.23 581.692 132.23Z" fill="#B5B5B5"/>
<path d="M646.668 131.232C641.344 131.232 637.079 130.702 633.872 129.643C630.666 128.554 628.337 126.647 626.885 123.924C625.463 121.17 624.752 117.312 624.752 112.35V64.6454H633.464V78.9431H665.634V86.1147H633.464V112.35C633.464 115.739 633.766 118.266 634.371 119.93C635.007 121.594 636.262 122.683 638.137 123.198C640.043 123.712 642.887 123.97 646.668 123.97C650.025 123.97 652.657 123.864 654.563 123.652C656.499 123.44 657.92 122.88 658.828 121.972C659.735 121.034 660.31 119.506 660.552 117.388C660.794 115.27 660.915 112.289 660.915 108.446H668.629C668.629 113.469 668.311 117.494 667.676 120.52C667.071 123.546 665.967 125.83 664.364 127.374C662.791 128.917 660.567 129.946 657.694 130.46C654.85 130.975 651.175 131.232 646.668 131.232Z" fill="#B5B5B5"/>
<path d="M709.011 132.23C703.173 132.23 698.212 131.928 694.129 131.323C690.045 130.748 686.748 129.552 684.237 127.737C681.727 125.891 679.896 123.137 678.747 119.476C677.598 115.815 677.023 110.928 677.023 104.815C677.023 98.8842 677.598 94.1335 678.747 90.5628C679.896 86.9922 681.727 84.2991 684.237 82.4835C686.748 80.6679 690.045 79.4575 694.129 78.8523C698.212 78.2472 703.173 77.9446 709.011 77.9446C714.88 77.9446 719.841 78.2472 723.894 78.8523C727.978 79.4575 731.275 80.6679 733.786 82.4835C736.296 84.2991 738.126 86.9922 739.276 90.5628C740.425 94.1335 741 98.8842 741 104.815C741 110.928 740.425 115.815 739.276 119.476C738.126 123.137 736.296 125.891 733.786 127.737C731.275 129.552 727.978 130.748 723.894 131.323C719.841 131.928 714.88 132.23 709.011 132.23ZM732.288 104.815C732.288 100.488 732.061 97.0233 731.608 94.4209C731.184 91.8186 730.231 89.8669 728.749 88.5657C727.267 87.2343 724.953 86.3416 721.807 85.8877C718.691 85.4338 714.426 85.2069 709.011 85.2069C703.627 85.2069 699.362 85.4338 696.216 85.8877C693.07 86.3416 690.756 87.2343 689.274 88.5657C687.792 89.8669 686.824 91.8186 686.37 94.4209C685.946 97.0233 685.735 100.488 685.735 104.815C685.735 109.294 685.946 112.879 686.37 115.572C686.824 118.266 687.792 120.293 689.274 121.655C690.756 122.986 693.07 123.879 696.216 124.333C699.362 124.756 703.627 124.968 709.011 124.968C714.426 124.968 718.691 124.756 721.807 124.333C724.953 123.879 727.267 122.986 728.749 121.655C730.231 120.293 731.184 118.266 731.608 115.572C732.061 112.879 732.288 109.294 732.288 104.815Z" fill="#B5B5B5"/>
</svg>
