<svg width="33" height="32" viewBox="0 0 33 32" fill="none" xmlns="http://www.w3.org/2000/svg">
<path d="M16.5 1.33301C15.4391 1.33301 14.4217 1.75444 13.6716 2.50458C12.9214 3.25473 12.5 4.27214 12.5 5.33301V15.9997C12.5 17.0605 12.9214 18.078 13.6716 18.8281C14.4217 19.5782 15.4391 19.9997 16.5 19.9997C17.5609 19.9997 18.5783 19.5782 19.3284 18.8281C20.0786 18.078 20.5 17.0605 20.5 15.9997V5.33301C20.5 4.27214 20.0786 3.25473 19.3284 2.50458C18.5783 1.75444 17.5609 1.33301 16.5 1.33301V1.33301Z" stroke="white" stroke-width="2" stroke-linecap="round" stroke-linejoin="round"/>
<path d="M25.8334 13.333V15.9997C25.8334 18.475 24.85 20.849 23.0997 22.5993C21.3493 24.3497 18.9754 25.333 16.5 25.333C14.0247 25.333 11.6507 24.3497 9.90036 22.5993C8.15002 20.849 7.16669 18.475 7.16669 15.9997V13.333" stroke="white" stroke-width="2" stroke-linecap="round" stroke-linejoin="round"/>
<path d="M16.5 25.333V30.6663" stroke="white" stroke-width="2" stroke-linecap="round" stroke-linejoin="round"/>
<path d="M11.1667 30.667H21.8334" stroke="white" stroke-width="2" stroke-linecap="round" stroke-linejoin="round"/>
</svg>
