<svg width="32" height="32" viewBox="0 0 32 32" fill="none" xmlns="http://www.w3.org/2000/svg">
<path d="M17.1597 20.0956L13.773 16.7489L13.813 16.7089C16.133 14.1223 17.7863 11.1489 18.7597 8.00228H22.6663V5.33561H13.333V2.66895H10.6663V5.33561H1.33301V8.00228H16.2263C15.333 10.5623 13.9197 13.0023 11.9997 15.1356C10.7597 13.7623 9.73301 12.2556 8.91967 10.6689H6.25301C7.22634 12.8423 8.55967 14.8956 10.2263 16.7489L3.43967 23.4423L5.33301 25.3356L11.9997 18.6689L16.1463 22.8156L17.1597 20.0956ZM24.6663 13.3356H21.9997L15.9997 29.3356H18.6663L20.1597 25.3356H26.493L27.9997 29.3356H30.6663L24.6663 13.3356ZM21.173 22.6689L23.333 16.8956L25.493 22.6689H21.173Z" fill="#5D5D5D" fill-opacity="0.6"/>
</svg>
