<svg width="33" height="32" viewBox="0 0 33 32" fill="none" xmlns="http://www.w3.org/2000/svg">
<g clip-path="url(#clip0_84_718)">
<path d="M23.1667 28V25.3333C23.1667 23.9188 22.6048 22.5623 21.6046 21.5621C20.6044 20.5619 19.2479 20 17.8334 20H7.16671C5.75222 20 4.39567 20.5619 3.39547 21.5621C2.39528 22.5623 1.83337 23.9188 1.83337 25.3333V28" stroke="#181818" stroke-width="2" stroke-linecap="round" stroke-linejoin="round"/>
<path d="M12.5 14.6667C15.4455 14.6667 17.8333 12.2789 17.8333 9.33333C17.8333 6.38781 15.4455 4 12.5 4C9.55444 4 7.16663 6.38781 7.16663 9.33333C7.16663 12.2789 9.55444 14.6667 12.5 14.6667Z" stroke="#181818" stroke-width="2" stroke-linecap="round" stroke-linejoin="round"/>
<path d="M31.1666 27.9995V25.3329C31.1657 24.1512 30.7724 23.0032 30.0484 22.0693C29.3245 21.1353 28.3108 20.4683 27.1666 20.1729" stroke="#181818" stroke-width="2" stroke-linecap="round" stroke-linejoin="round"/>
<path d="M21.8334 4.17285C22.9806 4.46659 23.9974 5.13379 24.7236 6.06927C25.4497 7.00474 25.8438 8.15529 25.8438 9.33952C25.8438 10.5237 25.4497 11.6743 24.7236 12.6098C23.9974 13.5452 22.9806 14.2124 21.8334 14.5062" stroke="#181818" stroke-width="2" stroke-linecap="round" stroke-linejoin="round"/>
</g>
<defs>
<clipPath id="clip0_84_718">
<rect width="32" height="32" fill="white" transform="translate(0.5)"/>
</clipPath>
</defs>
</svg>
